<?xml version="1.0" standalone="no"?>
<!DOCTYPE svg PUBLIC "-//W3C//DTD SVG 20010904//EN"
 "http://www.w3.org/TR/2001/REC-SVG-20010904/DTD/svg10.dtd">
<svg version="1.0" xmlns="http://www.w3.org/2000/svg"
 width="1378.000000pt" height="1378.000000pt" viewBox="0 0 1378.000000 1378.000000"
 preserveAspectRatio="xMidYMid meet">

<g transform="translate(0.000000,1378.000000) scale(0.100000,-0.100000)"
fill="#043873" stroke="none">
<path d="M6060 10909 c-1391 -113 -2607 -967 -3175 -2229 -42 -94 -65 -158
-65 -182 0 -145 69 -458 140 -638 288 -727 951 -1196 1930 -1364 393 -68 901
-94 1190 -60 592 67 1196 222 1683 428 20 9 37 14 37 10 0 -8 -173 -89 -371
-173 -691 -294 -1347 -463 -1979 -512 -216 -16 -630 -6 -826 20 -602 81 -1116
285 -1563 618 -172 129 -397 358 -498 508 -103 153 -176 281 -274 475 -124
248 -176 381 -281 715 l-16 50 -1 -116 c-5 -655 273 -1405 720 -1941 975
-1169 2402 -1308 4199 -408 916 459 1936 1202 2868 2090 95 91 266 249 378
352 113 102 209 190 212 194 9 10 19 15 -231 -135 -120 -72 -222 -131 -226
-131 -4 0 -20 33 -36 73 -46 119 -187 397 -198 390 -5 -3 -7 -1 -4 4 10 15
-42 105 -55 97 -7 -4 -8 -2 -4 5 7 10 -29 81 -41 81 -3 0 3 -12 12 -27 18 -28
24 -80 11 -101 -6 -11 5 -17 27 -13 12 2 8 -6 -10 -20 -11 -10 -14 -10 -9 -1
11 18 -1 15 -22 -6 -20 -20 -27 -74 -12 -102 12 -23 8 -25 -20 -8 -25 16 -38
3 -21 -23 11 -19 10 -20 -8 -14 -15 4 -21 2 -21 -9 0 -8 5 -18 10 -21 15 -9
12 -45 -4 -45 -9 0 -16 -12 -18 -32 -2 -25 -8 -34 -25 -36 -19 -3 -23 -10 -23
-36 0 -19 -7 -39 -15 -46 -8 -7 -18 -30 -21 -51 -4 -26 -13 -40 -26 -45 -15
-4 -17 -9 -7 -20 9 -11 8 -14 -2 -14 -11 0 -11 -3 1 -11 11 -8 12 -12 3 -16
-7 -2 -13 -11 -13 -19 0 -8 -7 -14 -15 -14 -8 0 -15 8 -15 18 -1 16 -1 16 -11
-1 -6 -10 -9 -27 -6 -38 3 -13 -5 -29 -24 -48 -16 -16 -29 -39 -29 -50 0 -12
-6 -21 -14 -21 -8 0 -19 -14 -25 -30 -6 -17 -21 -34 -35 -40 -16 -6 -26 -17
-26 -30 0 -11 -9 -28 -20 -37 -11 -10 -20 -30 -20 -45 0 -20 -5 -27 -22 -30
-13 -2 -23 -7 -24 -13 -3 -31 -54 -95 -76 -95 -4 0 -9 -9 -13 -19 -3 -11 -21
-27 -41 -36 -19 -9 -32 -20 -29 -25 3 -4 -2 -11 -11 -14 -8 -3 -13 -10 -10
-15 3 -4 -12 -15 -34 -24 -32 -12 -38 -19 -33 -36 3 -12 1 -21 -5 -21 -6 0
-26 -15 -44 -33 -29 -28 -36 -31 -47 -19 -11 11 -16 8 -30 -20 -10 -18 -30
-39 -45 -46 -14 -7 -37 -24 -49 -36 -13 -13 -43 -26 -67 -30 -35 -6 -41 -10
-26 -15 20 -8 20 -8 0 -14 -23 -9 -41 -20 -124 -77 -93 -64 -101 -68 -279
-152 -41 -20 -78 -30 -216 -60 -27 -6 -52 -14 -55 -18 -13 -18 -269 -30 -365
-17 -38 6 -80 10 -92 9 -14 0 -20 4 -16 11 4 6 1 7 -8 1 -19 -11 -89 -12 -82
-1 3 5 -5 6 -18 2 -19 -5 -21 -4 -9 4 21 15 12 14 -97 -14 -263 -66 -497 -89
-831 -82 -464 10 -836 95 -1224 281 -227 109 -584 361 -562 397 4 8 9 7 15 -2
7 -11 9 -10 9 3 0 10 -7 16 -19 15 -11 0 -17 -5 -15 -9 12 -20 -15 -5 -37 19
-16 19 -18 23 -4 12 21 -17 55 -21 55 -7 0 5 4 6 10 3 11 -7 90 72 90 90 0 7
16 12 36 13 45 2 52 8 36 32 -15 24 3 60 30 60 20 0 53 44 44 59 -3 5 1 11 9
15 8 3 17 0 21 -5 4 -6 15 -2 30 12 18 17 21 26 14 40 -14 25 -12 32 5 25 8
-3 15 -1 15 4 0 6 5 10 10 10 6 0 10 -7 10 -16 0 -13 3 -14 15 -4 8 7 13 16
10 20 -9 14 27 70 54 84 15 8 36 26 46 40 11 14 25 26 31 26 7 0 10 8 8 18 -6
26 11 45 41 45 23 0 26 3 21 23 -4 14 -2 24 4 24 6 0 15 11 20 25 6 14 17 25
28 25 11 0 31 17 46 39 15 22 34 42 42 45 8 3 14 16 14 30 0 16 5 23 17 22 10
0 19 7 21 18 5 22 13 33 66 87 21 21 43 39 48 39 6 0 8 7 4 15 -3 8 -2 14 2
13 20 -4 39 15 34 34 -4 17 -2 20 15 16 20 -5 53 21 53 41 0 5 8 23 18 40 13
25 22 30 40 26 14 -4 22 -1 22 8 0 7 8 31 19 52 12 26 20 34 25 24 5 -11 7
-11 12 -1 3 6 13 12 21 12 10 0 14 6 10 20 -3 13 1 21 15 26 10 3 24 17 30 30
10 22 22 28 56 27 6 -1 12 4 12 9 0 5 14 23 30 40 17 16 30 36 30 44 0 8 3 13
8 13 21 -4 32 3 32 19 0 9 9 23 20 30 12 7 20 8 20 2 0 -6 8 -5 20 2 11 7 20
17 20 22 0 9 24 31 60 56 13 8 35 24 49 36 14 12 40 28 56 37 45 24 75 53 75
71 0 9 8 16 20 16 12 0 32 11 45 24 13 14 41 30 61 38 20 7 44 23 54 35 10 13
28 23 41 23 12 0 30 6 38 13 9 8 32 20 51 27 19 7 43 22 53 32 11 11 24 17 30
15 6 -2 23 7 37 20 20 19 26 20 28 8 5 -21 16 -19 27 6 9 19 67 46 140 65 92
25 134 38 160 49 17 7 50 21 75 30 25 10 54 21 65 25 20 9 45 14 120 29 48 9
85 28 85 43 0 6 3 9 6 6 3 -4 0 -17 -6 -30 -12 -22 -11 -22 6 -6 16 16 18 16
31 0 12 -15 13 -14 2 8 -20 41 -52 80 -60 74 -5 -3 -7 1 -4 8 10 28 -327 451
-551 692 l-83 88 -108 9 c-134 10 -403 9 -543 -2z"/>
<path d="M11650 10067 c-90 -31 -167 -85 -295 -207 -166 -158 -138 -144 -241
-125 -136 25 -130 21 -94 61 16 19 30 39 30 45 0 14 -65 79 -79 79 -6 0 -42
-29 -80 -65 l-69 -66 -362 61 -361 60 -27 -19 c-15 -10 -40 -33 -55 -49 l-28
-29 26 -7 c40 -10 333 -140 562 -250 233 -112 295 -145 291 -156 -2 -4 -76
-83 -166 -175 -118 -121 -167 -165 -180 -161 -9 3 -115 24 -236 47 -193 36
-220 39 -233 26 -12 -11 -12 -16 -2 -22 8 -5 10 -4 5 3 -10 17 1 15 35 -5 19
-11 27 -23 24 -32 -3 -9 -3 -12 1 -8 10 10 64 -32 76 -59 12 -26 31 -34 22 -9
-4 8 -3 15 0 15 4 0 11 -11 16 -25 6 -15 17 -25 30 -25 11 0 23 -7 26 -15 4
-8 13 -15 21 -15 8 0 12 -4 8 -10 -3 -6 -15 -5 -31 2 -18 9 -21 14 -12 21 9 6
7 7 -6 3 -10 -4 -25 -1 -33 5 -7 7 -16 10 -18 7 -7 -6 147 -93 162 -92 7 1 11
-2 8 -6 -3 -5 1 -10 7 -13 9 -3 6 -11 -9 -28 l-22 -24 32 -36 c18 -19 26 -28
20 -19 -21 27 -15 35 9 14 22 -19 22 -19 8 0 -12 15 -12 20 -2 23 6 3 9 10 5
16 -4 7 1 6 10 -2 9 -7 17 -19 17 -25 0 -6 -5 -4 -10 4 -5 8 -10 10 -10 4 0
-15 25 -36 33 -27 4 3 7 1 7 -5 0 -7 -9 -17 -20 -24 -11 -7 -20 -17 -20 -22 0
-5 10 0 23 12 25 23 47 29 47 12 0 -6 12 -23 28 -37 15 -15 21 -23 15 -19 -9
5 -11 2 -7 -8 3 -8 12 -12 20 -9 9 3 14 -1 14 -12 0 -9 -5 -13 -10 -10 -6 4
-5 -4 1 -19 l12 -25 18 22 c16 19 18 20 19 5 0 -10 -5 -18 -11 -18 -5 0 -8 -4
-4 -10 3 -5 12 -7 20 -3 11 4 13 1 9 -11 -4 -9 -3 -16 2 -15 21 4 31 -3 48
-32 12 -21 24 -29 36 -26 14 3 17 0 15 -14 -2 -10 0 -21 6 -24 5 -4 9 -1 9 5
0 24 20 -3 21 -28 0 -15 3 -22 5 -15 3 6 -9 109 -26 229 l-31 218 23 22 c47
44 313 280 325 287 16 10 48 -55 177 -356 104 -241 196 -483 196 -512 0 -24
13 -18 58 28 32 33 42 50 42 76 0 18 -18 183 -40 366 l-40 333 70 69 c38 38
70 74 70 80 0 21 -58 73 -81 73 -13 0 -35 -12 -50 -26 -33 -31 -32 -32 -50
102 l-11 91 159 159 c132 132 165 170 190 224 34 70 56 160 47 185 -9 22 -77
19 -154 -8z m-1540 -937 c18 -12 2 -12 -25 0 -13 6 -15 9 -5 9 8 0 22 -4 30
-9z m110 -84 c0 -3 -4 -8 -10 -11 -5 -3 -10 -1 -10 4 0 6 5 11 10 11 6 0 10
-2 10 -4z m193 -246 c7 0 6 -4 -3 -10 -22 -14 -44 8 -28 28 12 13 13 13 16 -1
2 -10 9 -17 15 -17z m191 -165 c-9 -14 -19 -23 -22 -20 -5 4 26 45 35 45 2 0
-4 -11 -13 -25z"/>
<path d="M10080 9036 c0 -2 7 -7 16 -10 8 -3 12 -2 9 4 -6 10 -25 14 -25 6z"/>
<path d="M10147 8997 c3 -4 8 -6 11 -3 3 3 14 -2 25 -11 19 -17 19 -17 6 4 -7
12 -21 21 -30 20 -10 -1 -15 -5 -12 -10z"/>
<path d="M7278 7253 c7 -3 16 -2 19 1 4 3 -2 6 -13 5 -11 0 -14 -3 -6 -6z"/>
<path d="M7769 5983 c-13 -16 -12 -17 4 -4 16 13 21 21 13 21 -2 0 -10 -8 -17
-17z"/>
<path d="M7729 5953 c-13 -16 -12 -17 4 -4 9 7 17 15 17 17 0 8 -8 3 -21 -13z"/>
<path d="M7527 5812 c-91 -65 -105 -78 -92 -88 14 -11 14 -12 0 -18 -9 -3 -13
-2 -10 3 3 5 1 12 -5 16 -10 6 -113 -59 -105 -67 3 -2 -1 -5 -8 -5 -8 0 -60
-29 -118 -65 -460 -288 -1004 -549 -1433 -688 -280 -90 -587 -159 -881 -197
-195 -25 -694 -25 -875 0 -415 58 -789 173 -1023 313 -232 140 -448 348 -600
579 -33 50 -57 83 -54 75 50 -150 157 -366 247 -502 88 -132 162 -219 292
-343 223 -214 480 -366 797 -471 97 -32 118 -43 173 -92 415 -370 942 -658
1483 -811 635 -178 1322 -189 1957 -30 441 111 827 284 1206 540 87 58 156
111 154 118 -1 7 2 10 8 6 8 -5 220 158 220 169 0 1 -7 3 -14 3 -8 0 -15 -3
-14 -6 2 -19 -5 -20 -29 -5 -19 11 -22 11 -10 1 16 -13 16 -16 -4 -41 -12 -15
-24 -25 -27 -22 -2 3 1 12 8 21 11 13 10 14 -4 9 -9 -3 -16 -12 -16 -20 0 -8
-5 -14 -11 -14 -5 0 -7 -6 -3 -12 4 -8 3 -10 -2 -5 -12 12 -12 30 1 39 5 4 -1
8 -14 8 -20 0 -22 -4 -17 -27 3 -16 3 -22 0 -15 -3 6 -10 12 -16 12 -7 0 -7
-5 1 -13 6 -8 7 -18 3 -23 -4 -4 1 -2 11 5 22 17 33 9 12 -9 -13 -10 -18 -10
-33 3 -9 9 -20 16 -24 16 -5 1 -7 4 -5 9 1 4 5 6 10 4 4 -1 7 5 7 14 0 19 -31
74 -41 74 -8 0 -69 59 -69 67 0 2 -16 25 -36 49 -20 24 -32 44 -28 44 5 0 -7
15 -26 33 -40 37 -93 114 -82 120 4 2 1 2 -6 1 -7 -2 -16 4 -19 14 -3 9 -13
25 -21 35 -10 11 -11 17 -4 17 7 0 12 5 12 10 0 6 -7 10 -15 10 -8 0 -15 5
-15 11 0 5 -4 8 -9 5 -11 -7 -37 22 -50 58 -8 19 -16 26 -26 22 -17 -6 -21 9
-5 19 6 3 10 11 10 16 0 6 -7 3 -16 -6 -20 -19 -32 -12 -15 9 7 8 10 20 6 26
-3 5 -1 10 6 10 7 0 10 2 7 5 -8 8 -78 -27 -73 -36 3 -3 -3 -13 -13 -20 -15
-13 -16 -12 -3 4 7 9 10 17 5 17 -23 0 -182 -75 -177 -83 3 -6 1 -7 -5 -3 -5
3 -88 -23 -184 -58 -536 -199 -1082 -323 -1628 -371 -207 -18 -675 -30 -645
-16 11 5 101 23 199 41 573 104 1149 286 1696 537 249 115 452 222 444 235 -4
6 -2 8 4 5 15 -10 43 3 35 16 -3 6 -1 7 5 3 10 -6 122 49 122 60 0 5 -33 -8
-49 -20 -12 -9 -13 -7 -8 7 6 15 3 17 -12 12 -14 -4 -31 6 -60 34 -23 22 -41
45 -41 51 0 6 -10 21 -22 33 -13 12 -32 39 -42 60 -11 20 -22 37 -27 37 -14 0
-66 55 -73 78 -4 12 -11 22 -16 22 -5 0 -21 21 -37 48 -15 26 -33 51 -40 55
-7 4 -20 22 -29 40 -9 18 -30 45 -47 60 -26 23 -28 27 -11 22 19 -5 22 -2 21
23 -1 24 -5 28 -26 24 -16 -3 -22 -1 -17 7 4 6 12 8 18 5 7 -5 8 -2 3 6 -6 10
-4 12 9 7 10 -4 15 -3 11 3 -3 5 3 14 14 19 14 8 22 7 31 -4 13 -16 30 -11 30
8 0 7 -4 6 -10 -3 -8 -12 -10 -12 -16 3 -4 12 0 23 12 31 29 21 70 55 64 55
-3 0 -54 -35 -113 -77z m-20 -89 c0 -9 -6 -9 -21 -1 -30 15 -30 16 -3 14 13 0
24 -6 24 -13z m428 -582 c3 -5 2 -12 -3 -15 -5 -3 -9 1 -9 9 0 17 3 19 12 6z
m265 -336 c-7 -9 -15 -13 -17 -11 -7 7 7 26 19 26 6 0 6 -6 -2 -15z m-115 -55
c3 -6 -1 -7 -9 -4 -18 7 -21 14 -7 14 6 0 13 -4 16 -10z m530 -678 c-3 -3 -11
0 -18 7 -9 10 -8 11 6 5 10 -3 15 -9 12 -12z"/>
<path d="M7726 5525 c4 -8 10 -15 15 -15 4 0 6 7 3 15 -4 8 -10 15 -15 15 -4
0 -6 -7 -3 -15z"/>
<path d="M7800 5441 c0 -6 4 -13 10 -16 6 -3 7 1 4 9 -7 18 -14 21 -14 7z"/>
<path d="M7841 5374 c0 -11 3 -14 6 -6 3 7 2 16 -1 19 -3 4 -6 -2 -5 -13z"/>
<path d="M8199 5283 c-13 -17 -13 -17 6 -3 11 8 22 16 24 17 2 2 0 3 -6 3 -6
0 -17 -8 -24 -17z"/>
<path d="M8160 5261 c-8 -6 -18 -7 -22 -5 -4 3 -8 0 -8 -7 0 -8 -5 -7 -17 2
-16 13 -17 12 -5 -3 11 -14 10 -17 -10 -24 -13 -4 -27 -7 -31 -6 -5 1 -6 -2
-2 -8 5 -9 -7 -14 -27 -12 -3 1 -9 -5 -12 -14 -3 -8 -2 -13 2 -11 49 27 152
90 152 93 0 6 -3 5 -20 -5z"/>
<path d="M7956 5224 c-3 -9 -12 -14 -19 -11 -8 3 -13 -4 -13 -19 0 -13 5 -23
11 -20 5 2 9 9 8 15 -2 6 4 11 12 11 9 0 12 -6 9 -15 -4 -10 0 -15 11 -15 9 0
13 5 10 10 -3 6 0 10 7 11 7 0 3 4 -9 9 -15 6 -21 15 -17 25 3 8 4 15 1 15 -3
0 -8 -7 -11 -16z"/>
<path d="M8495 4970 c-3 -6 1 -7 9 -4 18 7 21 14 7 14 -6 0 -13 -4 -16 -10z"/>
<path d="M8398 4924 c-16 -8 -28 -17 -28 -19 0 -10 16 -4 40 15 30 23 25 25
-12 4z"/>
<path d="M8310 4879 c-23 -13 -27 -18 -11 -13 15 4 21 2 17 -4 -3 -6 -2 -13 3
-17 6 -3 8 3 6 14 -4 22 16 33 43 25 14 -5 15 -4 2 5 -19 14 -19 14 -60 -10z"/>
<path d="M8249 4849 c-8 -5 -10 -9 -5 -9 5 0 3 -6 -3 -14 -10 -12 -6 -13 26
-6 20 5 41 7 45 4 4 -3 8 -3 8 0 0 14 -57 34 -71 25z m41 -15 c0 -2 -7 -4 -15
-4 -8 0 -15 4 -15 10 0 5 7 7 15 4 8 -4 15 -8 15 -10z"/>
<path d="M8425 4590 c-3 -5 1 -10 9 -10 9 0 16 5 16 10 0 6 -4 10 -9 10 -6 0
-13 -4 -16 -10z"/>
<path d="M8503 4533 c6 -18 15 -33 19 -33 14 0 9 17 -12 41 l-19 24 12 -32z"/>
<path d="M8465 4490 c3 -5 8 -10 11 -10 2 0 4 5 4 10 0 6 -5 10 -11 10 -5 0
-7 -4 -4 -10z"/>
<path d="M8582 4440 c0 -14 2 -19 5 -12 2 6 2 18 0 25 -3 6 -5 1 -5 -13z"/>
<path d="M8650 4350 c0 -5 5 -10 11 -10 5 0 7 5 4 10 -3 6 -8 10 -11 10 -2 0
-4 -4 -4 -10z"/>
<path d="M8909 4303 l-34 -38 38 34 c34 33 42 41 34 41 -2 0 -19 -17 -38 -37z"/>
<path d="M8680 4321 c0 -6 4 -13 10 -16 6 -3 7 1 4 9 -7 18 -14 21 -14 7z"/>
<path d="M8720 4243 c0 -21 3 -24 9 -14 5 8 7 20 4 28 -8 21 -13 15 -13 -14z"/>
<path d="M8750 4230 c-8 -5 -10 -10 -5 -10 6 0 17 5 25 10 8 5 11 10 5 10 -5
0 -17 -5 -25 -10z"/>
<path d="M4995 2250 c-88 -3 -131 -7 -95 -8 36 -1 60 -6 54 -10 -14 -9 -26
-42 -15 -42 4 0 4 -24 0 -52 -4 -32 -2 -58 3 -65 6 -7 7 -13 3 -13 -4 0 -2 -7
5 -15 11 -13 6 -15 -36 -17 -135 -5 822 -15 1481 -15 667 0 1612 10 1480 15
-28 1 -45 6 -38 10 17 11 21 42 13 102 -4 30 -3 50 3 50 6 0 -2 11 -17 25
l-27 25 73 2 c40 1 -10 5 -112 9 -220 8 -2545 7 -2775 -1z"/>
</g>
</svg>
